<mxfile host="app.diagrams.net" modified="2022-01-31T22:43:02.437Z" agent="5.0 (Windows NT 10.0; Win64; x64) AppleWebKit/537.36 (KHTML, like Gecko) Chrome/97.0.4692.99 Safari/537.36" etag="otK83_j5DPc-nZ6_BXIG" version="15.7.4" type="github" pages="2">
  <diagram id="27CmP2ULXN56iSaM42A6" name="Admin">
    <mxGraphModel dx="2545" dy="943" grid="1" gridSize="10" guides="1" tooltips="1" connect="1" arrows="1" fold="1" page="1" pageScale="1" pageWidth="827" pageHeight="1169" math="0" shadow="0">
      <root>
        <mxCell id="0" />
        <mxCell id="1" parent="0" />
        <mxCell id="azRReNcGoX6WUeT299Ul-4" value="Requests" style="edgeStyle=orthogonalEdgeStyle;rounded=0;orthogonalLoop=1;jettySize=auto;html=1;" edge="1" parent="1" source="azRReNcGoX6WUeT299Ul-1" target="azRReNcGoX6WUeT299Ul-2">
          <mxGeometry relative="1" as="geometry" />
        </mxCell>
        <mxCell id="azRReNcGoX6WUeT299Ul-1" value="" style="shape=image;verticalLabelPosition=bottom;labelBackgroundColor=#ffffff;verticalAlign=top;aspect=fixed;imageAspect=0;image=data:image/png,iVBORw0KGgoAAAANSUhEUgAAAH8AAABKCAIAAAAdaBxaAAAAAXNSR0IArs4c6QAAAARnQU1BAACxjwv8YQUAAAAJcEhZcwAADsMAAA7DAcdvqGQAABd1SURBVHhe7Z15fFXVncA7M50Za8dtOh3HbUY7zOI4ikpdEW3VjxZZEyAhgZBAJCEkgQQQRGVNwuaGI8giuBACIQRIyEIiRUDLWsDaytJWq4VWrBuOioCKne89v9+9nneXR3De03/4fn593nffXb/nd37nHFz6rT+f4pvjlP1vknj2jx8/vnfv3m3bt2/avPlUnFTs2Llr377fqMdo4tk/evRYQ2NTU/PaltbnT8VJRUNDy5qWtZ9//rmqjCDS/hdffHH48OEFCysbm9atW7+5de3G5jXPSzStWRcbP/0ymt1o0mj0RfNaokGiKTYa7XguNFbHiQaiVaJeoyUkVseLOol6N5yva1ZJ1J846utbn/vpC8+v37J8RcPiJTVHjx5VmxHEs//xxx8vfKqysXldU/O6x2fNHT16LHHP6HtH3TNm5KjRGiNHjxg5SqJ0xMjSUidKSkYQw4ePGD6sdJiJ4mKihCgqHl5UPKxQomjY0KLioYVOFAwtKiiwo3DIkKFWFOTnO5FnxeC8IcTdg4l8J+4m8ojc3LxBuYOJgYNyg5GTM8iL7GxioB1ZA3KcyNLon5XdP2tAPxOZ/bKiIiOzvwQXnDb9oZbWDbUrG7H/ySefqM0I2mR/xcom5N58882dOnW66aabOnbseKPhBsP1119/3XXXXXvttdcYfujSoUOHq6+++iqX9rFcccUVl19++X+7XHbZZf9lcemll/6n4T9i+TdDu3bt/jXAD37wg0tc/iWWf7a46KKLLrzwwgsszrP4J8O5Ab4fyz+4fC8WrpyR0Y9emFj7jeQ10m3vSBfvgnjHuIB3T/2VV17pGbfBuIdad/Gp/3cX1KtsF6R7XGxQ5ZZ0jHv41J9//vmedzVt8Y8uat1FZQcw9jMTbL92RSOVxPOuvt18V98uSPd0Cyrb4GW6oLJjEe/q20CyR+W7EJrv6vuii9S0BdKFqGQHn3TNdoPKdvl7l/MvuCC9b2Z9ou03lJSUSLKD592X7KHlBagwgio3eKLtHPfAuBQZUNMGle0SJ9lVcwBPujq2aHuOI1q3vve9c845R9TDeeedn56eUb860faLhw3HuC/ZTXVxpJPsoeUlSjpQ2dW0QXLcw052NW3w6bYR6eCrLSDGhaB3NR1A7YaBaKQHoYKlpafXr25NpH3mT8xPVLnBky7GQX0bfOXFQ6TLiBoqXRDv6tsQR7oYF1S2QWW7mAJzEsMpqGkDunUrTP3ZLo79tITbr20oLCwW6QK6feolzcHnXTJdsOuMiNbiYmhjvkttETBOpnuoeHcsDdUNZhxVbONsi1/5KqI91LSL+j777LPOOks+gTsmw/7qgqGFprqEJzvSVXZgILUzHUS6ILo9VLaBUTQ02TGupl3U94nKi8oOVHYRDeLdRq0bVLlBRIfCffv0SUu8fZY8at0g0qXCgE+6GBfUugHjmufunF1lx4JlX7JLYQFV7hKUbntX3waV7aLKDSrboLINKjuAmg6Dmybefk3t6vwhBWJckAoj3n3qg8Y9RLp4D6r3JbspLQ5B6eDluzNXDysyat2gyg3o5lNlx4JZn3epLYBZ+Qxy5pln6pax3zvx9pevzs8fgnQxDlHJHsc4+Iw75TyivPiMi2uQHPeQZAefcRFtI2kuqGwXNR0LruVTvQZAehBulAz79Xl5+SJd8KQLQeMeIl1Q62GLI5BMh6B6le1muiDGPUKlCyi2vUuCC+LaRxzpgso2nHHGGbpl7Kem9k6KfU86YDxOsot0QX0bopIdRLrgMw7q22AnO4hfH7ZrH/GlC+o4FhXsgvS/M3gbwK2TYn/w4DyRLoh39R0oL3aaQ6h0WzdImoMpMPHGUg9fsqNbt8y2yjaIcQ+VbVDfbTPuYRu34dYpqb0SbH9ZTX1u7uBgskuag083OH/SaPCpV9kG9W0IJnuUdPHrYbJcUdkuKtugsgP41KvdMDAuqGmL77rwDEmxP2jQ3aHJHsx0UPGmuKPeFHMHn3EhmOyoV9MGM44qqtxFpAuq3CXKuOgG9R2Lmg4QlK6+v/vd0y24b0pKauLtDxyUK9IF8a6yDerbYCe7SBfUt2sc1HdYsqtvg8qORaRLaoMYF9R0GOo+LN/tbYif5uo7lqTZH5jrZTr4jJvqElPZQ5Pd1i04w2hgth6lG7wc96kXVLABv96GWA5FTbtgXLfOPFN9u6jg00+PUg+sF3r0TKlLtP267JyBnnTBZ1x0C0HpgqcbJNNBlVvJrqZdPOMeKtsgioOY/HZQzbGoYINTyw2q2ULSXFDBcUma/ewcjGuqu8kObHfo0OF/Y/n973+/evXq8vJyhgrsS5qDJ119W6hpF0ltQZVbqPiAevXtLpQEn+6gejUdhoo3qOAA37Hgxj169kyw/epljn1buuQ7Oc4n9jl+7969NTU1kydPRnpdXd1bb731u9/9jq+cFWo8mOYq20Jln2RB9+HTLQSTXRR726q2DZx22mnqHvtnn9OjR8+6+gTbX5U1IFvFG/VeeWHjqquu4vjGxsbBgwdLC7Eq3rp168GDB5999ln25OTkzJw5k7bp3LnzypUru3fvLgP4jBkzNm/evGfPnh07djz88MNMZzmXY+rr60eOHMny4sc//vGYMWOam5tvueUWfrrhhhu4yPTp06+44gqeoU+fPkuWLNm5c6f0M4YlaQZOHDt2LPt/9rOfPfHEEwMGDBDj999//+zZs++5557i4uI5c+ZwurgWaAy6ZllZGSe+8sor27ZtmzJlCm9HS3Cv3Nzc5cuXZ2RkcOXKykqqqHj/WwMbQrLs9++f5VR0F1PPHdgW++T+smXLJhnQ8fbbb//qV79KT0/nQR944AFEHDt27MCBA++++26/fv3uvPNO3uGjjz7C+4YNG3hVfl20aFHv3r35icLF8TfffHN+fj4bn3/++YgRI2677bb+/ftzCte/5pprUlNT//CHP1RXV1dUVDQ0NLz22msPPvggPYw7PvbYYxxGE65Zs4an+uMf/zho0CA6EC33xhtvvPnmm0hpaWnJysoy6a7QogsXLuREnmft2rVbtmw5evQoe1jhkxbTpk3DBvnE6S+//DIvLvZtaIazzjo7Kfb79csKncCwceWVV3L8p59+evjw4Q8MR44c4TVI/5/85Cck1Lhx4zZt2vThhx+SiaQzuZmZmcnw8OKLL/bo0YOVc6dOnX7+85+/8847U6dOJc3JMhqJLkLh+tOf/kQrPv7444WFhffeey+P1LVr19tvv53OwS3oW926daPBuE6XLl0oVuwhc3ft2kXfYtTBGk3OjWiYFStWoI8r3323s3ah1iHdFI/TOZEr8OQbN26kkNLPaGCen0eiL9IwdDgag/YjA+i4nnrJfQ/sd++eaPtLq1dlZPYT44I3irLdvn17jm9tbSVDzT/I80PE8f685/r163kTch/7vPmNN97I8VdffXVRUREv89BDD9FyZCWzKUoTzTNv3jzs8ysNSR+nN3DW6NGjm5qaFixYMHfuXFRSYbgI7frSSy/xhDQPCc7daRUkckfygJ6033Do0KHPPvuMluYU7NNF6EykkeddoDFoEpKGakM7UcF5NToTJ1K4eCSxTx/iOuJdwPjfWCTNfkY/bizSgYcDHpTtyy+/nOMZabOzs2U4pRzhi+JDrycHxT6FQjKOZOdVEUSe0lSMpRxDWmGcHKebX3/99bQEFeC5556jetAzfv3rX9MDGFoo9NyRW1CLGQao3That24djcQBtCLNwIBPKaNwedx0003U/draWq5DmeIZ1LoLD0w95JFoY66PfVJt8eLFGEhLS7vuuuvEPoWRp5U091DxBux365Z4+yszMjI96YB3wbNPf8cmYxqp+vTTT+Od3GcAQBPDHRmHffqsM7n5/vfvuOMOBluOGT9+PMlVWlpKH0cfG3QFTmHoe//99zmL4kOLvvrqqyQmBzD6cTo26We7d+8uKChADX2FGzFaMMKj6YUXXuBcKgkFilzmK/WHy4p9xgOuoNZdGHVJcC7IQ+bl5dGoQ4cO5ZF+8YtfdOzYkYQQ+ww2TKJ8xuHbLgzd3br1qKtvEftiMg5ttZ/eN0N9u8h8ETXMcDjervtkIgWUKo8ajrHtY4FpCX55ExqMPKWReE+8kGV0C16PizMFom1WrVrFTvbQA7gmYwP34ivXpEPQvRhFuSxTW36iDbg4t6AEMXLwExf/7W9/SweivuGFnfv27fPZ1wpy2mnspJqhm1LGI0lBY1ChmnFNsZ+SksL8VZVbqPsk2k/vK9JByguPK5D+JJoHRf+uu+7CDnMhDsYIyuj+5DsnyqSQnRTfH/3oR2QZXb5v376MxuxhP6/HAfQnJjkMfdQEigatyFdSno4v83cuRdXCF5McdPMTLcrLy0/oZqfMoLgIDUahZ7zhqTiLTDez8++oeAMtwcWpZpxFk5McbKOew7gjNfPWW2+l03Okz7hNUuwvWbqSB+Kt1HcAnjIIKoFX8hD1NhwmV0AQ8J4CEkPh9czs/Es4i/1sONNGF1Syh+vwaVI8ZkUqum0oJt4Gp8vVxHIoKjsAj9e1W3exP3/BM6oymrba79MnTTQJYs1I9hMlGjClW2F/EiAbYDw78DI+8OLD2HYQy6GodRcRbeOMnga166JS2wxP6Nl/ZOYsVRlNG+2v6NWrT5RuQaQLKjiA+jbG5dN2bRMqWlDZBrUbhm051LhHULqHSo3mr2Lh8Tz7C55apCqjOQn7qtlFCoug1l1s0UFEOqjpMES0DTs5hVZRuycivnEhNN/hr13UcTRq3YXn7NpV7VdWLVOV0XxF+6HGPVSzhegGkQv2tuBUFoPoZnhkWcCai6Gb2XevXr2YyzK6coAKDqBSw5Idy4zqLLMZhDlSNQdQ69HeVXMsf+lCd+zatVuCR92qpStSe/WWNPdQ0wHUt2XcRk1H/0mvlBQ2WNMzWWRCKX9fobCw8Mknn2Qmw4niGsU+1HQYmGUaM27cuOrqah5SXPtQwQHUcQQq3uCzn5jVVtWSFampjn3N80Blx7W3YSSHI5YFb5vJK/O5gQMHstTik5kls0zsMxMV+6hnNpmRkTFhwgTWRJzIjdq1a8cB9AbWX8xc6RwoplMyQ2fK2KFDBz6HDBnCjJaVM4lP1s+dO3fHjh0sSrgLV5Cao6luUNkuateAWd0KIN6F5NnvZfSGEN84OLltEN0eKObcnj17zpkzh2XO+vXrN2zY0NzczAIVj7Z9modFLwfQITiF9QHL123btnHAli1bWJRxCpMClkUrV6586aWXampqWFv98pe/3L59+9KlSy+44AJWG42NjayHjx07Nm/ePNYo2I9vPA4q2+UvXOiRybBfm5KSqrJd2pLvat0F3Z53KS+YZVnLWnfTpk1lZWWVlZW4I0MvvvjirKwszz6ZO3v2bBauQ4cOZRioqqras2fP1q1b6S6I3r179+uvv06+s0Zj0cuilCNnzJhBS7CEZsXLQoml1sKFC2ljcr+goIDu65UaNdpmVLmFuk+e/R49U0S0gFn5DEVlu2DZh1PaDRQKlv4s67t06YIR6gmVfdSoURjPzs727F966aVin+rPEnTnzp1vvvnmo48+2rlzZ8oL3eXQoUMjR45kiUuyHzhwoLy8HLkMGLNmzeKn++67jybnAO71wQcfUELFu6BST4T4Vd+xfMslifY970FUs4skuKC+DarcIj09vaWlBZWIk0sxDDA54USv8tAPPPtFRUUYf/nll48cOcJXyo6wbt26YcOGtW/fHvvkOy2HfQoOLYTuiRMncnfPPs2sRk+E2g1DGsMH9rt0SYL97t17iB0blR3Alq6aA/CgcO211y5atOjtt99OS0tjaGWWScEZM2YMdZkS39ra6rNP7jNlpOJTweXvJlJwGKjpMZdccgkFCvv79u3jIiQ1F3nkkUeC9hnVT5jy6jiAao6AeVfi7S8O2EexfHqYRHcQ6R4q2yDGbRhdKfcHDx5cs2ZNTk7OY489Rt2noFPcmeQE7VNnzj33XAbSvXv3MkQjHbNNTU0MFZ06dbrsssvi2GfM4ES+0uF4TtVsoYIt9Ae37NjoEVbZgeTaV9MuohvYFteCyja65TMKHpcFFNPw/fv3I/q1115jAtOxY0fOYi60ePFiWoLZJDnOnAfdmZmZXJ/GSElJqa2tpcRzYl1dXUlJCVej0JPdVCGm9tinnbgyMx9+5UbUJRp48+bNDNFckNLkM6s6LfSHMNR3LMmxX4X97mLcQ0QHMdoVURwFzyqwzZBOjuOLs5i5Mx30QFMoHMYgQU5wBVwHEblBeHg+VXAYKjgalR2AJ0mG/eXdujn2NdUD5cUGlSf0DjyoswaNQAWHoWqjEcVRqOAwVG0EKjguSbSvdl1Mcus/fqRGT4Rt/JR9aKt9prEi2kPsC2rXhYfwUJ0WFBPdiiVOkVGvYajUuKjdMFRtGGr0ZOB9k2hfZbe5oIOqDQOtprA7iOVQVHMs6jUatRuAn9RuGGrxq8L7Jt5+ZdXyu7p0VfEG1RxGfONxRKvXb3/b3g4ickNRwQH4Se0G4Fc1lwiSaF/thmEb///bj0L8Gs8hiMpQRHQoqi1BJMf+4uV33RViX40m0zio3TDUbhhqNwK1lWiSZb9z5y6q3EXVRuOU86+xoIOqDUP1JJmk2G9as272E/OHDSspdmK4F+Y/ceeEvVOCnYVE0ZfH2GF+GsavEeH8B/MiozBOFEfF0MKiryFKR4x6+tmq5376YgLsHz58eIGx//yGrafipELsHzlyRG1GEGkfPv3009raFUuW1ixeUv30M88ueOrpU3GieIaoWrJsydJl9fWr1WM08ewDDQAHD75VXV0z3uKBAPfffz+f48aNk6/AHpv77rtPtwz3GsaOHcvnGAvZyQF8yq/AuSB7QHZ6jLa4x2KUYWQspaWl7CwJMHz48GEGNrxtkK9QXFysWwa+Fhc7v/M/topc+OnVV1/96KOP8KYSowm3/9577+3atWvRosrJkyeXlo4oLCzMzc0dMGBAloGNxJIdQH+IRe5u079//34GNsDdo5GZKT/2y8zM7GtIT09PS3NCSHPpE0bv3r17xZIag/M1JcULj9T8/HxS5OGHH25oaHj99dePRv8Xab+0z0E02vLltRUVFSUlzj9egAX7DYHX0K2vBaM0MdhP7nsLvtroCXHxjjQ5kKUXcq8s+7GXk5MzePBgWmLGjBm1tbV79uzxdQjH/pEjx7Zv39Xc3FpZWblw4VPz5z85b978uXPneTFnDjFXwmNOCM7OJ+wA357YMOiV3eAsJ9yf9GtUhOLcN5rZsTwei+49EXq0y/9Ew6+zZs3CGHqbm5tJcVEPjv3jx7/YvXv3+vXrFxuqolly8iyNpbq6epnF8gDkiM0KAwWQkk0BNNU2HhxWVla2yiDnuuhXrmgHd9RHWbaMZ+OB+ZQNQd+8qkrkYFB45plnnopgYSwLLDZs2LB//35RD479zz77jE6xceNGuY3eNgxVGIE8t4fs1DdzEcUenl+blRbiccKECQUFBRkZGdLlQ5GOTwNgf7Whrq5u1aq6mprl06Y9WDFlenkFMa28YmpMlMdEmfspMblsyuSyCo3JMTHJiomTymOjLCYmOjFpUvncefORfODAAVEPjn0qPmanT59eXl7xlaOiYkowgvvLnV0xe9oSEydOcidazKqYVkUG7URHmeYyZQoxddKkyRMnavA7V5swYZK3x/5Vvvr2nHxw8UlyHftSZeUV5NNvfvPl/yuCY5+FVUtLy7y58yZyyKTJTvBXzndj4oSJ48eNt2McFtwI7iHMlDMkuEXZ5DKCW7DNlfE1YfwJggOdfw+YZzHIrDc+XNVpKBfnLi7yhDyzfOVg064KX+UU/X7y6OtbyCQb5N/dFPXg2If333//jTfeaG1tzcvLmzlzJgWBPmJDwTpZGEiCsF+vaCHHx0GPM+iuRKPPZ/B9/QrYV8A+9XDq1Kk7duw4dOiQPe1R+3D8+HHWCPIvd9MYh0+RIJjyU20YbIPrry/tn+Lr55T9b5JT9r85/vzn/wNSPPlc+LjHLwAAAABJRU5ErkJggg==;" vertex="1" parent="1">
          <mxGeometry x="120" y="180" width="127" height="74" as="geometry" />
        </mxCell>
        <mxCell id="azRReNcGoX6WUeT299Ul-33" style="edgeStyle=orthogonalEdgeStyle;rounded=0;orthogonalLoop=1;jettySize=auto;html=1;entryX=0.5;entryY=0;entryDx=0;entryDy=0;" edge="1" parent="1" source="azRReNcGoX6WUeT299Ul-2" target="azRReNcGoX6WUeT299Ul-22">
          <mxGeometry relative="1" as="geometry" />
        </mxCell>
        <mxCell id="azRReNcGoX6WUeT299Ul-2" value="Web Server" style="rounded=1;whiteSpace=wrap;html=1;fillColor=#d5e8d4;strokeColor=#82b366;" vertex="1" parent="1">
          <mxGeometry x="360" y="187" width="120" height="60" as="geometry" />
        </mxCell>
        <mxCell id="azRReNcGoX6WUeT299Ul-12" value="HTTP" style="rounded=0;whiteSpace=wrap;html=1;fillColor=#fff2cc;strokeColor=#d6b656;" vertex="1" parent="1">
          <mxGeometry x="247" y="80" width="120" height="60" as="geometry" />
        </mxCell>
        <mxCell id="azRReNcGoX6WUeT299Ul-14" value="" style="endArrow=none;dashed=1;html=1;rounded=0;entryX=0.5;entryY=1;entryDx=0;entryDy=0;fillColor=#fff2cc;strokeColor=#d6b656;" edge="1" parent="1" target="azRReNcGoX6WUeT299Ul-12">
          <mxGeometry width="50" height="50" relative="1" as="geometry">
            <mxPoint x="300" y="200" as="sourcePoint" />
            <mxPoint x="440" y="20" as="targetPoint" />
          </mxGeometry>
        </mxCell>
        <mxCell id="azRReNcGoX6WUeT299Ul-15" value="PUMA" style="rounded=0;whiteSpace=wrap;html=1;fillColor=#fff2cc;strokeColor=#d6b656;" vertex="1" parent="1">
          <mxGeometry x="490" y="100" width="120" height="60" as="geometry" />
        </mxCell>
        <mxCell id="azRReNcGoX6WUeT299Ul-16" value="" style="endArrow=none;dashed=1;html=1;rounded=0;entryX=0.5;entryY=1;entryDx=0;entryDy=0;fillColor=#fff2cc;strokeColor=#d6b656;" edge="1" parent="1" target="azRReNcGoX6WUeT299Ul-15">
          <mxGeometry width="50" height="50" relative="1" as="geometry">
            <mxPoint x="490" y="190" as="sourcePoint" />
            <mxPoint x="320" y="120" as="targetPoint" />
          </mxGeometry>
        </mxCell>
        <mxCell id="azRReNcGoX6WUeT299Ul-21" value="https://adrianmejia.com/images/rails_arch.png" style="text;html=1;align=center;verticalAlign=middle;resizable=0;points=[];autosize=1;strokeColor=none;fillColor=none;" vertex="1" parent="1">
          <mxGeometry y="20" width="260" height="20" as="geometry" />
        </mxCell>
        <mxCell id="azRReNcGoX6WUeT299Ul-23" value="Displays" style="edgeStyle=orthogonalEdgeStyle;rounded=0;orthogonalLoop=1;jettySize=auto;html=1;entryX=0.5;entryY=1;entryDx=0;entryDy=0;" edge="1" parent="1" source="azRReNcGoX6WUeT299Ul-22" target="azRReNcGoX6WUeT299Ul-1">
          <mxGeometry x="0.2989" relative="1" as="geometry">
            <mxPoint as="offset" />
          </mxGeometry>
        </mxCell>
        <mxCell id="azRReNcGoX6WUeT299Ul-25" value="Queries" style="edgeStyle=orthogonalEdgeStyle;rounded=0;orthogonalLoop=1;jettySize=auto;html=1;exitX=1;exitY=0.25;exitDx=0;exitDy=0;entryX=0;entryY=0.406;entryDx=0;entryDy=0;entryPerimeter=0;" edge="1" parent="1" source="azRReNcGoX6WUeT299Ul-22" target="azRReNcGoX6WUeT299Ul-28">
          <mxGeometry relative="1" as="geometry">
            <mxPoint x="630.34224" y="394.3695" as="targetPoint" />
          </mxGeometry>
        </mxCell>
        <mxCell id="azRReNcGoX6WUeT299Ul-22" value="TrestleAdmin" style="rounded=1;whiteSpace=wrap;html=1;fillColor=#f8cecc;strokeColor=#b85450;" vertex="1" parent="1">
          <mxGeometry x="360" y="380" width="120" height="60" as="geometry" />
        </mxCell>
        <mxCell id="azRReNcGoX6WUeT299Ul-29" style="edgeStyle=orthogonalEdgeStyle;rounded=0;orthogonalLoop=1;jettySize=auto;html=1;exitX=0;exitY=0.7;exitDx=0;exitDy=0;dashed=1;entryX=1;entryY=0.5;entryDx=0;entryDy=0;" edge="1" parent="1" source="azRReNcGoX6WUeT299Ul-28" target="azRReNcGoX6WUeT299Ul-22">
          <mxGeometry relative="1" as="geometry">
            <mxPoint x="480" y="412" as="targetPoint" />
          </mxGeometry>
        </mxCell>
        <mxCell id="azRReNcGoX6WUeT299Ul-30" value="Data or Errors" style="edgeLabel;html=1;align=center;verticalAlign=middle;resizable=0;points=[];" vertex="1" connectable="0" parent="azRReNcGoX6WUeT299Ul-29">
          <mxGeometry x="-0.1522" relative="1" as="geometry">
            <mxPoint as="offset" />
          </mxGeometry>
        </mxCell>
        <mxCell id="azRReNcGoX6WUeT299Ul-28" value="Database" style="shape=datastore;whiteSpace=wrap;html=1;fillColor=#dae8fc;strokeColor=#6c8ebf;" vertex="1" parent="1">
          <mxGeometry x="590" y="370" width="60" height="60" as="geometry" />
        </mxCell>
        <mxCell id="azRReNcGoX6WUeT299Ul-31" value="PostgreSQL" style="rounded=0;whiteSpace=wrap;html=1;fillColor=#fff2cc;strokeColor=#d6b656;" vertex="1" parent="1">
          <mxGeometry x="650" y="460" width="120" height="60" as="geometry" />
        </mxCell>
        <mxCell id="azRReNcGoX6WUeT299Ul-32" value="" style="endArrow=none;dashed=1;html=1;rounded=0;entryX=0.5;entryY=0;entryDx=0;entryDy=0;fillColor=#fff2cc;strokeColor=#d6b656;" edge="1" parent="1" target="azRReNcGoX6WUeT299Ul-31">
          <mxGeometry width="50" height="50" relative="1" as="geometry">
            <mxPoint x="660" y="430" as="sourcePoint" />
            <mxPoint x="560" y="170" as="targetPoint" />
          </mxGeometry>
        </mxCell>
        <mxCell id="azRReNcGoX6WUeT299Ul-34" value="XHTML, CSS, JS &amp;amp; images" style="rounded=0;whiteSpace=wrap;html=1;fillColor=#fff2cc;strokeColor=#d6b656;" vertex="1" parent="1">
          <mxGeometry x="-10" y="280" width="120" height="60" as="geometry" />
        </mxCell>
        <mxCell id="azRReNcGoX6WUeT299Ul-35" value="" style="endArrow=none;dashed=1;html=1;rounded=0;entryX=1;entryY=0.5;entryDx=0;entryDy=0;fillColor=#fff2cc;strokeColor=#d6b656;" edge="1" parent="1" target="azRReNcGoX6WUeT299Ul-34">
          <mxGeometry width="50" height="50" relative="1" as="geometry">
            <mxPoint x="170" y="330" as="sourcePoint" />
            <mxPoint x="317" y="150" as="targetPoint" />
          </mxGeometry>
        </mxCell>
      </root>
    </mxGraphModel>
  </diagram>
  <diagram id="t3dZCJ9LITbyxilFPN7G" name="Client">
    <mxGraphModel dx="2005" dy="647" grid="1" gridSize="10" guides="1" tooltips="1" connect="1" arrows="1" fold="1" page="1" pageScale="1" pageWidth="827" pageHeight="1169" math="0" shadow="0">
      <root>
        <mxCell id="3ywBfPX3iNmCve1ays4g-0" />
        <mxCell id="3ywBfPX3iNmCve1ays4g-1" parent="3ywBfPX3iNmCve1ays4g-0" />
        <mxCell id="ySsHtuVt2JHLHBXy8Nn3-0" value="Requests" style="edgeStyle=orthogonalEdgeStyle;rounded=0;orthogonalLoop=1;jettySize=auto;html=1;" edge="1" parent="3ywBfPX3iNmCve1ays4g-1" source="ySsHtuVt2JHLHBXy8Nn3-1" target="ySsHtuVt2JHLHBXy8Nn3-3">
          <mxGeometry relative="1" as="geometry" />
        </mxCell>
        <mxCell id="ySsHtuVt2JHLHBXy8Nn3-1" value="" style="shape=image;verticalLabelPosition=bottom;labelBackgroundColor=#ffffff;verticalAlign=top;aspect=fixed;imageAspect=0;image=data:image/png,iVBORw0KGgoAAAANSUhEUgAAAH8AAABKCAIAAAAdaBxaAAAAAXNSR0IArs4c6QAAAARnQU1BAACxjwv8YQUAAAAJcEhZcwAADsMAAA7DAcdvqGQAABd1SURBVHhe7Z15fFXVncA7M50Za8dtOh3HbUY7zOI4ikpdEW3VjxZZEyAhgZBAJCEkgQQQRGVNwuaGI8giuBACIQRIyEIiRUDLWsDaytJWq4VWrBuOioCKne89v9+9nneXR3De03/4fn593nffXb/nd37nHFz6rT+f4pvjlP1vknj2jx8/vnfv3m3bt2/avPlUnFTs2Llr377fqMdo4tk/evRYQ2NTU/PaltbnT8VJRUNDy5qWtZ9//rmqjCDS/hdffHH48OEFCysbm9atW7+5de3G5jXPSzStWRcbP/0ymt1o0mj0RfNaokGiKTYa7XguNFbHiQaiVaJeoyUkVseLOol6N5yva1ZJ1J846utbn/vpC8+v37J8RcPiJTVHjx5VmxHEs//xxx8vfKqysXldU/O6x2fNHT16LHHP6HtH3TNm5KjRGiNHjxg5SqJ0xMjSUidKSkYQw4ePGD6sdJiJ4mKihCgqHl5UPKxQomjY0KLioYVOFAwtKiiwo3DIkKFWFOTnO5FnxeC8IcTdg4l8J+4m8ojc3LxBuYOJgYNyg5GTM8iL7GxioB1ZA3KcyNLon5XdP2tAPxOZ/bKiIiOzvwQXnDb9oZbWDbUrG7H/ySefqM0I2mR/xcom5N58882dOnW66aabOnbseKPhBsP1119/3XXXXXvttdcYfujSoUOHq6+++iqX9rFcccUVl19++X+7XHbZZf9lcemll/6n4T9i+TdDu3bt/jXAD37wg0tc/iWWf7a46KKLLrzwwgsszrP4J8O5Ab4fyz+4fC8WrpyR0Y9emFj7jeQ10m3vSBfvgnjHuIB3T/2VV17pGbfBuIdad/Gp/3cX1KtsF6R7XGxQ5ZZ0jHv41J9//vmedzVt8Y8uat1FZQcw9jMTbL92RSOVxPOuvt18V98uSPd0Cyrb4GW6oLJjEe/q20CyR+W7EJrv6vuii9S0BdKFqGQHn3TNdoPKdvl7l/MvuCC9b2Z9ou03lJSUSLKD592X7KHlBagwgio3eKLtHPfAuBQZUNMGle0SJ9lVcwBPujq2aHuOI1q3vve9c845R9TDeeedn56eUb860faLhw3HuC/ZTXVxpJPsoeUlSjpQ2dW0QXLcw052NW3w6bYR6eCrLSDGhaB3NR1A7YaBaKQHoYKlpafXr25NpH3mT8xPVLnBky7GQX0bfOXFQ6TLiBoqXRDv6tsQR7oYF1S2QWW7mAJzEsMpqGkDunUrTP3ZLo79tITbr20oLCwW6QK6feolzcHnXTJdsOuMiNbiYmhjvkttETBOpnuoeHcsDdUNZhxVbONsi1/5KqI91LSL+j777LPOOks+gTsmw/7qgqGFprqEJzvSVXZgILUzHUS6ILo9VLaBUTQ02TGupl3U94nKi8oOVHYRDeLdRq0bVLlBRIfCffv0SUu8fZY8at0g0qXCgE+6GBfUugHjmufunF1lx4JlX7JLYQFV7hKUbntX3waV7aLKDSrboLINKjuAmg6Dmybefk3t6vwhBWJckAoj3n3qg8Y9RLp4D6r3JbspLQ5B6eDluzNXDysyat2gyg3o5lNlx4JZn3epLYBZ+Qxy5pln6pax3zvx9pevzs8fgnQxDlHJHsc4+Iw75TyivPiMi2uQHPeQZAefcRFtI2kuqGwXNR0LruVTvQZAehBulAz79Xl5+SJd8KQLQeMeIl1Q62GLI5BMh6B6le1muiDGPUKlCyi2vUuCC+LaRxzpgso2nHHGGbpl7Kem9k6KfU86YDxOsot0QX0bopIdRLrgMw7q22AnO4hfH7ZrH/GlC+o4FhXsgvS/M3gbwK2TYn/w4DyRLoh39R0oL3aaQ6h0WzdImoMpMPHGUg9fsqNbt8y2yjaIcQ+VbVDfbTPuYRu34dYpqb0SbH9ZTX1u7uBgskuag083OH/SaPCpV9kG9W0IJnuUdPHrYbJcUdkuKtugsgP41KvdMDAuqGmL77rwDEmxP2jQ3aHJHsx0UPGmuKPeFHMHn3EhmOyoV9MGM44qqtxFpAuq3CXKuOgG9R2Lmg4QlK6+v/vd0y24b0pKauLtDxyUK9IF8a6yDerbYCe7SBfUt2sc1HdYsqtvg8qORaRLaoMYF9R0GOo+LN/tbYif5uo7lqTZH5jrZTr4jJvqElPZQ5Pd1i04w2hgth6lG7wc96kXVLABv96GWA5FTbtgXLfOPFN9u6jg00+PUg+sF3r0TKlLtP267JyBnnTBZ1x0C0HpgqcbJNNBlVvJrqZdPOMeKtsgioOY/HZQzbGoYINTyw2q2ULSXFDBcUma/ewcjGuqu8kObHfo0OF/Y/n973+/evXq8vJyhgrsS5qDJ119W6hpF0ltQZVbqPiAevXtLpQEn+6gejUdhoo3qOAA37Hgxj169kyw/epljn1buuQ7Oc4n9jl+7969NTU1kydPRnpdXd1bb731u9/9jq+cFWo8mOYq20Jln2RB9+HTLQSTXRR726q2DZx22mnqHvtnn9OjR8+6+gTbX5U1IFvFG/VeeWHjqquu4vjGxsbBgwdLC7Eq3rp168GDB5999ln25OTkzJw5k7bp3LnzypUru3fvLgP4jBkzNm/evGfPnh07djz88MNMZzmXY+rr60eOHMny4sc//vGYMWOam5tvueUWfrrhhhu4yPTp06+44gqeoU+fPkuWLNm5c6f0M4YlaQZOHDt2LPt/9rOfPfHEEwMGDBDj999//+zZs++5557i4uI5c+ZwurgWaAy6ZllZGSe+8sor27ZtmzJlCm9HS3Cv3Nzc5cuXZ2RkcOXKykqqqHj/WwMbQrLs9++f5VR0F1PPHdgW++T+smXLJhnQ8fbbb//qV79KT0/nQR944AFEHDt27MCBA++++26/fv3uvPNO3uGjjz7C+4YNG3hVfl20aFHv3r35icLF8TfffHN+fj4bn3/++YgRI2677bb+/ftzCte/5pprUlNT//CHP1RXV1dUVDQ0NLz22msPPvggPYw7PvbYYxxGE65Zs4an+uMf/zho0CA6EC33xhtvvPnmm0hpaWnJysoy6a7QogsXLuREnmft2rVbtmw5evQoe1jhkxbTpk3DBvnE6S+//DIvLvZtaIazzjo7Kfb79csKncCwceWVV3L8p59+evjw4Q8MR44c4TVI/5/85Cck1Lhx4zZt2vThhx+SiaQzuZmZmcnw8OKLL/bo0YOVc6dOnX7+85+/8847U6dOJc3JMhqJLkLh+tOf/kQrPv7444WFhffeey+P1LVr19tvv53OwS3oW926daPBuE6XLl0oVuwhc3ft2kXfYtTBGk3OjWiYFStWoI8r3323s3ah1iHdFI/TOZEr8OQbN26kkNLPaGCen0eiL9IwdDgag/YjA+i4nnrJfQ/sd++eaPtLq1dlZPYT44I3irLdvn17jm9tbSVDzT/I80PE8f685/r163kTch/7vPmNN97I8VdffXVRUREv89BDD9FyZCWzKUoTzTNv3jzs8ysNSR+nN3DW6NGjm5qaFixYMHfuXFRSYbgI7frSSy/xhDQPCc7daRUkckfygJ6033Do0KHPPvuMluYU7NNF6EykkeddoDFoEpKGakM7UcF5NToTJ1K4eCSxTx/iOuJdwPjfWCTNfkY/bizSgYcDHpTtyy+/nOMZabOzs2U4pRzhi+JDrycHxT6FQjKOZOdVEUSe0lSMpRxDWmGcHKebX3/99bQEFeC5556jetAzfv3rX9MDGFoo9NyRW1CLGQao3That24djcQBtCLNwIBPKaNwedx0003U/draWq5DmeIZ1LoLD0w95JFoY66PfVJt8eLFGEhLS7vuuuvEPoWRp5U091DxBux365Z4+yszMjI96YB3wbNPf8cmYxqp+vTTT+Od3GcAQBPDHRmHffqsM7n5/vfvuOMOBluOGT9+PMlVWlpKH0cfG3QFTmHoe//99zmL4kOLvvrqqyQmBzD6cTo26We7d+8uKChADX2FGzFaMMKj6YUXXuBcKgkFilzmK/WHy4p9xgOuoNZdGHVJcC7IQ+bl5dGoQ4cO5ZF+8YtfdOzYkYQQ+ww2TKJ8xuHbLgzd3br1qKtvEftiMg5ttZ/eN0N9u8h8ETXMcDjervtkIgWUKo8ajrHtY4FpCX55ExqMPKWReE+8kGV0C16PizMFom1WrVrFTvbQA7gmYwP34ivXpEPQvRhFuSxTW36iDbg4t6AEMXLwExf/7W9/SweivuGFnfv27fPZ1wpy2mnspJqhm1LGI0lBY1ChmnFNsZ+SksL8VZVbqPsk2k/vK9JByguPK5D+JJoHRf+uu+7CDnMhDsYIyuj+5DsnyqSQnRTfH/3oR2QZXb5v376MxuxhP6/HAfQnJjkMfdQEigatyFdSno4v83cuRdXCF5McdPMTLcrLy0/oZqfMoLgIDUahZ7zhqTiLTDez8++oeAMtwcWpZpxFk5McbKOew7gjNfPWW2+l03Okz7hNUuwvWbqSB+Kt1HcAnjIIKoFX8hD1NhwmV0AQ8J4CEkPh9czs/Es4i/1sONNGF1Syh+vwaVI8ZkUqum0oJt4Gp8vVxHIoKjsAj9e1W3exP3/BM6oymrba79MnTTQJYs1I9hMlGjClW2F/EiAbYDw78DI+8OLD2HYQy6GodRcRbeOMnga166JS2wxP6Nl/ZOYsVRlNG+2v6NWrT5RuQaQLKjiA+jbG5dN2bRMqWlDZBrUbhm051LhHULqHSo3mr2Lh8Tz7C55apCqjOQn7qtlFCoug1l1s0UFEOqjpMES0DTs5hVZRuycivnEhNN/hr13UcTRq3YXn7NpV7VdWLVOV0XxF+6HGPVSzhegGkQv2tuBUFoPoZnhkWcCai6Gb2XevXr2YyzK6coAKDqBSw5Idy4zqLLMZhDlSNQdQ69HeVXMsf+lCd+zatVuCR92qpStSe/WWNPdQ0wHUt2XcRk1H/0mvlBQ2WNMzWWRCKX9fobCw8Mknn2Qmw4niGsU+1HQYmGUaM27cuOrqah5SXPtQwQHUcQQq3uCzn5jVVtWSFampjn3N80Blx7W3YSSHI5YFb5vJK/O5gQMHstTik5kls0zsMxMV+6hnNpmRkTFhwgTWRJzIjdq1a8cB9AbWX8xc6RwoplMyQ2fK2KFDBz6HDBnCjJaVM4lP1s+dO3fHjh0sSrgLV5Cao6luUNkuateAWd0KIN6F5NnvZfSGEN84OLltEN0eKObcnj17zpkzh2XO+vXrN2zY0NzczAIVj7Z9modFLwfQITiF9QHL123btnHAli1bWJRxCpMClkUrV6586aWXampqWFv98pe/3L59+9KlSy+44AJWG42NjayHjx07Nm/ePNYo2I9vPA4q2+UvXOiRybBfm5KSqrJd2pLvat0F3Z53KS+YZVnLWnfTpk1lZWWVlZW4I0MvvvjirKwszz6ZO3v2bBauQ4cOZRioqqras2fP1q1b6S6I3r179+uvv06+s0Zj0cuilCNnzJhBS7CEZsXLQoml1sKFC2ljcr+goIDu65UaNdpmVLmFuk+e/R49U0S0gFn5DEVlu2DZh1PaDRQKlv4s67t06YIR6gmVfdSoURjPzs727F966aVin+rPEnTnzp1vvvnmo48+2rlzZ8oL3eXQoUMjR45kiUuyHzhwoLy8HLkMGLNmzeKn++67jybnAO71wQcfUELFu6BST4T4Vd+xfMslifY970FUs4skuKC+DarcIj09vaWlBZWIk0sxDDA54USv8tAPPPtFRUUYf/nll48cOcJXyo6wbt26YcOGtW/fHvvkOy2HfQoOLYTuiRMncnfPPs2sRk+E2g1DGsMH9rt0SYL97t17iB0blR3Alq6aA/CgcO211y5atOjtt99OS0tjaGWWScEZM2YMdZkS39ra6rNP7jNlpOJTweXvJlJwGKjpMZdccgkFCvv79u3jIiQ1F3nkkUeC9hnVT5jy6jiAao6AeVfi7S8O2EexfHqYRHcQ6R4q2yDGbRhdKfcHDx5cs2ZNTk7OY489Rt2noFPcmeQE7VNnzj33XAbSvXv3MkQjHbNNTU0MFZ06dbrsssvi2GfM4ES+0uF4TtVsoYIt9Ae37NjoEVbZgeTaV9MuohvYFteCyja65TMKHpcFFNPw/fv3I/q1115jAtOxY0fOYi60ePFiWoLZJDnOnAfdmZmZXJ/GSElJqa2tpcRzYl1dXUlJCVej0JPdVCGm9tinnbgyMx9+5UbUJRp48+bNDNFckNLkM6s6LfSHMNR3LMmxX4X97mLcQ0QHMdoVURwFzyqwzZBOjuOLs5i5Mx30QFMoHMYgQU5wBVwHEblBeHg+VXAYKjgalR2AJ0mG/eXdujn2NdUD5cUGlSf0DjyoswaNQAWHoWqjEcVRqOAwVG0EKjguSbSvdl1Mcus/fqRGT4Rt/JR9aKt9prEi2kPsC2rXhYfwUJ0WFBPdiiVOkVGvYajUuKjdMFRtGGr0ZOB9k2hfZbe5oIOqDQOtprA7iOVQVHMs6jUatRuAn9RuGGrxq8L7Jt5+ZdXyu7p0VfEG1RxGfONxRKvXb3/b3g4ickNRwQH4Se0G4Fc1lwiSaF/thmEb///bj0L8Gs8hiMpQRHQoqi1BJMf+4uV33RViX40m0zio3TDUbhhqNwK1lWiSZb9z5y6q3EXVRuOU86+xoIOqDUP1JJmk2G9as272E/OHDSspdmK4F+Y/ceeEvVOCnYVE0ZfH2GF+GsavEeH8B/MiozBOFEfF0MKiryFKR4x6+tmq5376YgLsHz58eIGx//yGrafipELsHzlyRG1GEGkfPv3009raFUuW1ixeUv30M88ueOrpU3GieIaoWrJsydJl9fWr1WM08ewDDQAHD75VXV0z3uKBAPfffz+f48aNk6/AHpv77rtPtwz3GsaOHcvnGAvZyQF8yq/AuSB7QHZ6jLa4x2KUYWQspaWl7CwJMHz48GEGNrxtkK9QXFysWwa+Fhc7v/M/topc+OnVV1/96KOP8KYSowm3/9577+3atWvRosrJkyeXlo4oLCzMzc0dMGBAloGNxJIdQH+IRe5u079//34GNsDdo5GZKT/2y8zM7GtIT09PS3NCSHPpE0bv3r17xZIag/M1JcULj9T8/HxS5OGHH25oaHj99dePRv8Xab+0z0E02vLltRUVFSUlzj9egAX7DYHX0K2vBaM0MdhP7nsLvtroCXHxjjQ5kKUXcq8s+7GXk5MzePBgWmLGjBm1tbV79uzxdQjH/pEjx7Zv39Xc3FpZWblw4VPz5z85b978uXPneTFnDjFXwmNOCM7OJ+wA357YMOiV3eAsJ9yf9GtUhOLcN5rZsTwei+49EXq0y/9Ew6+zZs3CGHqbm5tJcVEPjv3jx7/YvXv3+vXrFxuqolly8iyNpbq6epnF8gDkiM0KAwWQkk0BNNU2HhxWVla2yiDnuuhXrmgHd9RHWbaMZ+OB+ZQNQd+8qkrkYFB45plnnopgYSwLLDZs2LB//35RD479zz77jE6xceNGuY3eNgxVGIE8t4fs1DdzEcUenl+blRbiccKECQUFBRkZGdLlQ5GOTwNgf7Whrq5u1aq6mprl06Y9WDFlenkFMa28YmpMlMdEmfspMblsyuSyCo3JMTHJiomTymOjLCYmOjFpUvncefORfODAAVEPjn0qPmanT59eXl7xlaOiYkowgvvLnV0xe9oSEydOcidazKqYVkUG7URHmeYyZQoxddKkyRMnavA7V5swYZK3x/5Vvvr2nHxw8UlyHftSZeUV5NNvfvPl/yuCY5+FVUtLy7y58yZyyKTJTvBXzndj4oSJ48eNt2McFtwI7iHMlDMkuEXZ5DKCW7DNlfE1YfwJggOdfw+YZzHIrDc+XNVpKBfnLi7yhDyzfOVg064KX+UU/X7y6OtbyCQb5N/dFPXg2If333//jTfeaG1tzcvLmzlzJgWBPmJDwTpZGEiCsF+vaCHHx0GPM+iuRKPPZ/B9/QrYV8A+9XDq1Kk7duw4dOiQPe1R+3D8+HHWCPIvd9MYh0+RIJjyU20YbIPrry/tn+Lr55T9b5JT9r85/vzn/wNSPPlc+LjHLwAAAABJRU5ErkJggg==;" vertex="1" parent="3ywBfPX3iNmCve1ays4g-1">
          <mxGeometry x="120" y="180" width="127" height="74" as="geometry" />
        </mxCell>
        <mxCell id="ySsHtuVt2JHLHBXy8Nn3-20" value="Forwards" style="edgeStyle=orthogonalEdgeStyle;rounded=0;orthogonalLoop=1;jettySize=auto;html=1;entryX=0.5;entryY=0;entryDx=0;entryDy=0;" edge="1" parent="3ywBfPX3iNmCve1ays4g-1" source="ySsHtuVt2JHLHBXy8Nn3-3" target="ySsHtuVt2JHLHBXy8Nn3-19">
          <mxGeometry relative="1" as="geometry" />
        </mxCell>
        <mxCell id="ySsHtuVt2JHLHBXy8Nn3-3" value="Web Server" style="rounded=1;whiteSpace=wrap;html=1;fillColor=#d5e8d4;strokeColor=#82b366;" vertex="1" parent="3ywBfPX3iNmCve1ays4g-1">
          <mxGeometry x="360" y="187" width="120" height="60" as="geometry" />
        </mxCell>
        <mxCell id="ySsHtuVt2JHLHBXy8Nn3-4" value="HTTP" style="rounded=0;whiteSpace=wrap;html=1;fillColor=#fff2cc;strokeColor=#d6b656;" vertex="1" parent="3ywBfPX3iNmCve1ays4g-1">
          <mxGeometry x="247" y="80" width="120" height="60" as="geometry" />
        </mxCell>
        <mxCell id="ySsHtuVt2JHLHBXy8Nn3-5" value="" style="endArrow=none;dashed=1;html=1;rounded=0;entryX=0.5;entryY=1;entryDx=0;entryDy=0;fillColor=#fff2cc;strokeColor=#d6b656;" edge="1" parent="3ywBfPX3iNmCve1ays4g-1" target="ySsHtuVt2JHLHBXy8Nn3-4">
          <mxGeometry width="50" height="50" relative="1" as="geometry">
            <mxPoint x="300" y="200" as="sourcePoint" />
            <mxPoint x="440" y="20" as="targetPoint" />
          </mxGeometry>
        </mxCell>
        <mxCell id="ySsHtuVt2JHLHBXy8Nn3-6" value="PUMA" style="rounded=0;whiteSpace=wrap;html=1;fillColor=#fff2cc;strokeColor=#d6b656;" vertex="1" parent="3ywBfPX3iNmCve1ays4g-1">
          <mxGeometry x="490" y="100" width="120" height="60" as="geometry" />
        </mxCell>
        <mxCell id="ySsHtuVt2JHLHBXy8Nn3-7" value="" style="endArrow=none;dashed=1;html=1;rounded=0;entryX=0.5;entryY=1;entryDx=0;entryDy=0;fillColor=#fff2cc;strokeColor=#d6b656;" edge="1" parent="3ywBfPX3iNmCve1ays4g-1" target="ySsHtuVt2JHLHBXy8Nn3-6">
          <mxGeometry width="50" height="50" relative="1" as="geometry">
            <mxPoint x="490" y="190" as="sourcePoint" />
            <mxPoint x="320" y="120" as="targetPoint" />
          </mxGeometry>
        </mxCell>
        <mxCell id="ySsHtuVt2JHLHBXy8Nn3-13" value="Database" style="shape=datastore;whiteSpace=wrap;html=1;fillColor=#dae8fc;strokeColor=#6c8ebf;" vertex="1" parent="3ywBfPX3iNmCve1ays4g-1">
          <mxGeometry x="610" y="560" width="60" height="60" as="geometry" />
        </mxCell>
        <mxCell id="ySsHtuVt2JHLHBXy8Nn3-14" value="PostgreSQL" style="rounded=0;whiteSpace=wrap;html=1;fillColor=#fff2cc;strokeColor=#d6b656;" vertex="1" parent="3ywBfPX3iNmCve1ays4g-1">
          <mxGeometry x="420" y="630" width="120" height="60" as="geometry" />
        </mxCell>
        <mxCell id="ySsHtuVt2JHLHBXy8Nn3-15" value="" style="endArrow=none;dashed=1;html=1;rounded=0;entryX=0.5;entryY=0;entryDx=0;entryDy=0;fillColor=#fff2cc;strokeColor=#d6b656;" edge="1" parent="3ywBfPX3iNmCve1ays4g-1" target="ySsHtuVt2JHLHBXy8Nn3-14">
          <mxGeometry width="50" height="50" relative="1" as="geometry">
            <mxPoint x="600" y="610" as="sourcePoint" />
            <mxPoint x="580" y="360" as="targetPoint" />
          </mxGeometry>
        </mxCell>
        <mxCell id="ySsHtuVt2JHLHBXy8Nn3-16" value="XHTML, CSS, JS &amp;amp; images" style="rounded=0;whiteSpace=wrap;html=1;fillColor=#fff2cc;strokeColor=#d6b656;" vertex="1" parent="3ywBfPX3iNmCve1ays4g-1">
          <mxGeometry x="-10" y="280" width="120" height="60" as="geometry" />
        </mxCell>
        <mxCell id="ySsHtuVt2JHLHBXy8Nn3-17" value="" style="endArrow=none;dashed=1;html=1;rounded=0;entryX=1;entryY=0.5;entryDx=0;entryDy=0;fillColor=#fff2cc;strokeColor=#d6b656;" edge="1" parent="3ywBfPX3iNmCve1ays4g-1" target="ySsHtuVt2JHLHBXy8Nn3-16">
          <mxGeometry width="50" height="50" relative="1" as="geometry">
            <mxPoint x="170" y="330" as="sourcePoint" />
            <mxPoint x="317" y="150" as="targetPoint" />
          </mxGeometry>
        </mxCell>
        <mxCell id="ySsHtuVt2JHLHBXy8Nn3-22" value="Loads" style="edgeStyle=orthogonalEdgeStyle;rounded=0;orthogonalLoop=1;jettySize=auto;html=1;entryX=0.5;entryY=0;entryDx=0;entryDy=0;" edge="1" parent="3ywBfPX3iNmCve1ays4g-1" source="ySsHtuVt2JHLHBXy8Nn3-19" target="ySsHtuVt2JHLHBXy8Nn3-21">
          <mxGeometry relative="1" as="geometry" />
        </mxCell>
        <mxCell id="ySsHtuVt2JHLHBXy8Nn3-19" value="Dispatcher" style="rounded=1;whiteSpace=wrap;html=1;fillColor=#f8cecc;strokeColor=#b85450;" vertex="1" parent="3ywBfPX3iNmCve1ays4g-1">
          <mxGeometry x="360" y="310" width="120" height="60" as="geometry" />
        </mxCell>
        <mxCell id="ySsHtuVt2JHLHBXy8Nn3-27" style="edgeStyle=orthogonalEdgeStyle;rounded=0;orthogonalLoop=1;jettySize=auto;html=1;exitX=1;exitY=0.25;exitDx=0;exitDy=0;entryX=0;entryY=0.25;entryDx=0;entryDy=0;startArrow=none;startFill=0;endArrow=classic;endFill=1;" edge="1" parent="3ywBfPX3iNmCve1ays4g-1" source="ySsHtuVt2JHLHBXy8Nn3-21" target="ySsHtuVt2JHLHBXy8Nn3-23">
          <mxGeometry relative="1" as="geometry" />
        </mxCell>
        <mxCell id="ySsHtuVt2JHLHBXy8Nn3-28" value="CRUDs" style="edgeLabel;html=1;align=center;verticalAlign=middle;resizable=0;points=[];" vertex="1" connectable="0" parent="ySsHtuVt2JHLHBXy8Nn3-27">
          <mxGeometry x="0.1571" y="-2" relative="1" as="geometry">
            <mxPoint as="offset" />
          </mxGeometry>
        </mxCell>
        <mxCell id="ySsHtuVt2JHLHBXy8Nn3-21" value="Controller" style="rounded=1;whiteSpace=wrap;html=1;fillColor=#f8cecc;strokeColor=#b85450;" vertex="1" parent="3ywBfPX3iNmCve1ays4g-1">
          <mxGeometry x="360" y="430" width="120" height="60" as="geometry" />
        </mxCell>
        <mxCell id="ySsHtuVt2JHLHBXy8Nn3-24" value="Queries" style="edgeStyle=orthogonalEdgeStyle;rounded=0;orthogonalLoop=1;jettySize=auto;html=1;exitX=0.32;exitY=1.002;exitDx=0;exitDy=0;entryX=0.15;entryY=0.05;entryDx=0;entryDy=0;entryPerimeter=0;exitPerimeter=0;" edge="1" parent="3ywBfPX3iNmCve1ays4g-1" source="ySsHtuVt2JHLHBXy8Nn3-23" target="ySsHtuVt2JHLHBXy8Nn3-13">
          <mxGeometry relative="1" as="geometry">
            <mxPoint x="609.8571428571427" y="560" as="targetPoint" />
          </mxGeometry>
        </mxCell>
        <mxCell id="ySsHtuVt2JHLHBXy8Nn3-25" value="Data or&lt;br&gt;errors" style="edgeStyle=orthogonalEdgeStyle;rounded=0;orthogonalLoop=1;jettySize=auto;html=1;exitX=0.673;exitY=0.983;exitDx=0;exitDy=0;entryX=0.85;entryY=0.05;entryDx=0;entryDy=0;entryPerimeter=0;exitPerimeter=0;dashed=1;endArrow=none;endFill=0;startArrow=classic;startFill=1;" edge="1" parent="3ywBfPX3iNmCve1ays4g-1" source="ySsHtuVt2JHLHBXy8Nn3-23" target="ySsHtuVt2JHLHBXy8Nn3-13">
          <mxGeometry relative="1" as="geometry">
            <mxPoint x="669.8571428571427" y="550" as="targetPoint" />
          </mxGeometry>
        </mxCell>
        <mxCell id="ySsHtuVt2JHLHBXy8Nn3-30" value="Responds" style="edgeStyle=orthogonalEdgeStyle;rounded=0;orthogonalLoop=1;jettySize=auto;html=1;exitX=0;exitY=0.75;exitDx=0;exitDy=0;entryX=1;entryY=0.75;entryDx=0;entryDy=0;startArrow=none;startFill=0;endArrow=classic;endFill=1;" edge="1" parent="3ywBfPX3iNmCve1ays4g-1" source="ySsHtuVt2JHLHBXy8Nn3-23" target="ySsHtuVt2JHLHBXy8Nn3-21">
          <mxGeometry relative="1" as="geometry" />
        </mxCell>
        <mxCell id="ySsHtuVt2JHLHBXy8Nn3-23" value="Active Record" style="rounded=1;whiteSpace=wrap;html=1;fillColor=#f8cecc;strokeColor=#b85450;" vertex="1" parent="3ywBfPX3iNmCve1ays4g-1">
          <mxGeometry x="580" y="430" width="120" height="60" as="geometry" />
        </mxCell>
        <mxCell id="ySsHtuVt2JHLHBXy8Nn3-31" value="Redirects" style="edgeStyle=orthogonalEdgeStyle;rounded=0;orthogonalLoop=1;jettySize=auto;html=1;exitX=0.25;exitY=1;exitDx=0;exitDy=0;entryX=0.75;entryY=1;entryDx=0;entryDy=0;startArrow=none;startFill=0;endArrow=classic;endFill=1;" edge="1" parent="3ywBfPX3iNmCve1ays4g-1" source="ySsHtuVt2JHLHBXy8Nn3-21" target="ySsHtuVt2JHLHBXy8Nn3-21">
          <mxGeometry relative="1" as="geometry">
            <Array as="points">
              <mxPoint x="390" y="530" />
              <mxPoint x="450" y="530" />
            </Array>
          </mxGeometry>
        </mxCell>
      </root>
    </mxGraphModel>
  </diagram>
</mxfile>
